<svg width="223" height="267" viewBox="0 0 223 267" fill="none" xmlns="http://www.w3.org/2000/svg">
<path d="M95.4617 266.339L49.5 267H10C4.47715 267 0 262.523 0 257V80C0 74.4771 4.47715 70 10 70H139C144.523 70 149 74.4772 149 80V110C149 115.523 144.523 120 139 120H60C54.4771 120 50 124.477 50 130V192.379C50 195.019 51.0437 197.551 52.9035 199.424L102.414 249.294C108.63 255.555 104.283 266.212 95.4617 266.339Z" fill="#425E5E"/>
<path d="M6.10352e-05 40V10C6.10352e-05 4.47715 4.47721 0 10.0001 0H212.019C217.534 0 222.008 4.46572 222.019 9.98122L222.481 255.981C222.492 261.511 218.011 266 212.481 266H154.662C151.998 266 149.444 264.937 147.567 263.048L77.9057 192.925C76.0446 191.051 75.0001 188.518 75.0001 185.877V150C75.0001 144.477 79.4772 140 85.0001 140H162C167.523 140 172 135.523 172 130V60C172 54.4772 167.523 50 162 50H10.0001C4.47721 50 6.10352e-05 45.5228 6.10352e-05 40Z" fill="#425E5E"/>
</svg>
